# xmcd
#
# Track frame offsets: 
#        150
#        13759
#        29316
#        46191
#        62353
#        76590
#        94672
#        107790
#        125346
#        139367
#        150956
#        172357
#
# Disc length: 2501 seconds
#
# Revision: 0
# Processed by: cddbd v1.5.1PL2 Copyright (c) Steve Scherf et al.
# Submitted via: ExactAudioCopy v0.95b3
#
DISCID=8f09c30c
DTITLE=Orawee Sujjanon - Ruk tee kid tung - Vol 2
DYEAR=2005
DGENRE=Folk
TTITLE0=Saen ruk 
TTITLE1=Lhong ruk
TTITLE2=Narm ta fon
TTITLE3=Plor ter ru plao
TTITLE4=Roy thao bon puen trai
TTITLE5=Plae nai jai
TTITLE6=Ruk sorn
TTITLE7=Dung med trai
TTITLE8=Ruk nor ruk 
TTITLE9=Kwam ruk preak ha
TTITLE10=Kor wela tung tua
TTITLE11=Pieng kae jai rao ruk kun
EXTD=
EXTT0=
EXTT1=
EXTT2=
EXTT3=
EXTT4=
EXTT5=
EXTT6=
EXTT7=
EXTT8=
EXTT9=
EXTT10=
EXTT11=
PLAYORDER=
